# Tiled2Unity generated file. Do not modify by hand.
# Wavefront file for 'map1_mesh_0009.obj'

# Vertices (Count = 32)
v -704 -736 0
v -720 -736 0
v -720 -720 0
v -704 -720 0
v -672 -736 0
v -688 -736 0
v -688 -720 0
v -672 -720 0
v -688 -752 0
v -704 -752 0
v -704 -736 0
v -688 -736 0
v -1136 -896 0
v -1152 -896 0
v -1152 -880 0
v -1136 -880 0
v -912 -1024 0
v -928 -1024 0
v -928 -1008 0
v -912 -1008 0
v -832 -1024 0
v -848 -1024 0
v -848 -1008 0
v -832 -1008 0
v -880 -1040 0
v -896 -1040 0
v -896 -1024 0
v -880 -1024 0
v -864 -1040 0
v -880 -1040 0
v -880 -1024 0
v -864 -1024 0

# Texture cooridinates (Count = 24)
vt 0.7376033 0.9372624
vt 0.7541322 0.9372624
vt 0.7541322 0.9676806
vt 0.7376033 0.9676806
vt 0.5795454 0.9695817
vt 0.5960744 0.9695817
vt 0.5960744 1
vt 0.5795454 1
vt 0.6849173 0.904943
vt 0.7014463 0.904943
vt 0.7014463 0.9353612
vt 0.6849173 0.9353612
vt 0.8254132 0.9695817
vt 0.8419421 0.9695817
vt 0.8419421 1
vt 0.8254132 1
vt 0.5444215 0.7756654
vt 0.5609504 0.7756654
vt 0.5609504 0.8060837
vt 0.5444215 0.8060837
vt 0.5268595 0.7756654
vt 0.5433884 0.7756654
vt 0.5433884 0.8060837
vt 0.5268595 0.8060837

# Normal
vn 0 0 -1

# Mesh description
g map1_mesh_0009

# Faces
f 1/1/1 2/2/1 3/3/1 4/4/1
f 5/1/1 6/2/1 7/3/1 8/4/1
f 9/5/1 10/6/1 11/7/1 12/8/1
f 13/9/1 14/10/1 15/11/1 16/12/1
f 17/13/1 18/14/1 19/15/1 20/16/1
f 21/13/1 22/14/1 23/15/1 24/16/1
f 25/17/1 26/18/1 27/19/1 28/20/1
f 29/21/1 30/22/1 31/23/1 32/24/1

