# Tiled2Unity generated file. Do not modify by hand.
# Wavefront file for 'map1_mesh_0014.obj'

# Vertices (Count = 112)
v -976 -112 0
v -992 -112 0
v -992 -96 0
v -976 -96 0
v -960 -112 0
v -976 -112 0
v -976 -96 0
v -960 -96 0
v -1040 -128 0
v -1056 -128 0
v -1056 -112 0
v -1040 -112 0
v -1024 -128 0
v -1040 -128 0
v -1040 -112 0
v -1024 -112 0
v -976 -128 0
v -992 -128 0
v -992 -112 0
v -976 -112 0
v -960 -128 0
v -976 -128 0
v -976 -112 0
v -960 -112 0
v -416 -480 0
v -432 -480 0
v -432 -464 0
v -416 -464 0
v -672 -688 0
v -688 -688 0
v -688 -672 0
v -672 -672 0
v -896 -784 0
v -912 -784 0
v -912 -768 0
v -896 -768 0
v -656 -784 0
v -672 -784 0
v -672 -768 0
v -656 -768 0
v -640 -784 0
v -656 -784 0
v -656 -768 0
v -640 -768 0
v -864 -816 0
v -880 -816 0
v -880 -800 0
v -864 -800 0
v -848 -816 0
v -864 -816 0
v -864 -800 0
v -848 -800 0
v -832 -816 0
v -848 -816 0
v -848 -800 0
v -832 -800 0
v -816 -816 0
v -832 -816 0
v -832 -800 0
v -816 -800 0
v -800 -816 0
v -816 -816 0
v -816 -800 0
v -800 -800 0
v -1152 -848 0
v -1168 -848 0
v -1168 -832 0
v -1152 -832 0
v -800 -864 0
v -816 -864 0
v -816 -848 0
v -800 -848 0
v -720 -912 0
v -736 -912 0
v -736 -896 0
v -720 -896 0
v -704 -912 0
v -720 -912 0
v -720 -896 0
v -704 -896 0
v -640 -944 0
v -656 -944 0
v -656 -928 0
v -640 -928 0
v -624 -944 0
v -640 -944 0
v -640 -928 0
v -624 -928 0
v -592 -1008 0
v -608 -1008 0
v -608 -992 0
v -592 -992 0
v -848 -1040 0
v -864 -1040 0
v -864 -1024 0
v -848 -1024 0
v -496 -1040 0
v -512 -1040 0
v -512 -1024 0
v -496 -1024 0
v -896 -1072 0
v -912 -1072 0
v -912 -1056 0
v -896 -1056 0
v -832 -1088 0
v -848 -1088 0
v -848 -1072 0
v -832 -1072 0
v -912 -1120 0
v -928 -1120 0
v -928 -1104 0
v -912 -1104 0

# Texture cooridinates (Count = 92)
vt 0.8254132 0.6463878
vt 0.8419421 0.6463878
vt 0.8419421 0.6768061
vt 0.8254132 0.6768061
vt 0.8078513 0.6463878
vt 0.8243802 0.6463878
vt 0.8243802 0.6768061
vt 0.8078513 0.6768061
vt 0.9132231 0.5817491
vt 0.9297521 0.5817491
vt 0.9297521 0.6121673
vt 0.9132231 0.6121673
vt 0.8956612 0.5817491
vt 0.9121901 0.5817491
vt 0.9121901 0.6121673
vt 0.8956612 0.6121673
vt 0.8254132 0.6140684
vt 0.8419421 0.6140684
vt 0.8419421 0.6444867
vt 0.8254132 0.6444867
vt 0.8078513 0.6140684
vt 0.8243802 0.6140684
vt 0.8243802 0.6444867
vt 0.8078513 0.6444867
vt 0.9307851 0.5817491
vt 0.947314 0.5817491
vt 0.947314 0.6121673
vt 0.9307851 0.6121673
vt 0.2985537 0.8079848
vt 0.3150826 0.8079848
vt 0.3150826 0.838403
vt 0.2985537 0.838403
vt 0.5444215 0.6787072
vt 0.5609504 0.6787072
vt 0.5609504 0.7091255
vt 0.5444215 0.7091255
vt 0.9307851 0.2585551
vt 0.947314 0.2585551
vt 0.947314 0.2889734
vt 0.9307851 0.2889734
vt 0.9307851 0.2908745
vt 0.947314 0.2908745
vt 0.947314 0.3212928
vt 0.9307851 0.3212928
vt 0.8605372 0.1939163
vt 0.8770661 0.1939163
vt 0.8770661 0.2243346
vt 0.8605372 0.2243346
vt 0.8429752 0.1939163
vt 0.8595041 0.1939163
vt 0.8595041 0.2243346
vt 0.8429752 0.2243346
vt 0.6322314 0.3231939
vt 0.6487603 0.3231939
vt 0.6487603 0.3536122
vt 0.6322314 0.3536122
vt 0.9307851 0.4847909
vt 0.947314 0.4847909
vt 0.947314 0.5152091
vt 0.9307851 0.5152091
vt 0.9307851 0.4201521
vt 0.947314 0.4201521
vt 0.947314 0.4505703
vt 0.9307851 0.4505703
vt 0.1931818 0.904943
vt 0.2097107 0.904943
vt 0.2097107 0.9353612
vt 0.1931818 0.9353612
vt 0.1931818 0.9372624
vt 0.2097107 0.9372624
vt 0.2097107 0.9676806
vt 0.1931818 0.9676806
vt 0.3688017 0.9695817
vt 0.3853306 0.9695817
vt 0.3853306 1
vt 0.3688017 1
vt 0.3336777 0.9695817
vt 0.3502066 0.9695817
vt 0.3502066 1
vt 0.3336777 1
vt 0.4917355 0.6787072
vt 0.5082645 0.6787072
vt 0.5082645 0.7091255
vt 0.4917355 0.7091255
vt 0.5092975 0.6787072
vt 0.5258265 0.6787072
vt 0.5258265 0.7091255
vt 0.5092975 0.7091255
vt 0.5268595 0.6787072
vt 0.5433884 0.6787072
vt 0.5433884 0.7091255
vt 0.5268595 0.7091255

# Normal
vn 0 0 -1

# Mesh description
g map1_mesh_0014

# Faces
f 1/1/1 2/2/1 3/3/1 4/4/1
f 5/5/1 6/6/1 7/7/1 8/8/1
f 9/9/1 10/10/1 11/11/1 12/12/1
f 13/13/1 14/14/1 15/15/1 16/16/1
f 17/17/1 18/18/1 19/19/1 20/20/1
f 21/21/1 22/22/1 23/23/1 24/24/1
f 25/25/1 26/26/1 27/27/1 28/28/1
f 29/29/1 30/30/1 31/31/1 32/32/1
f 33/33/1 34/34/1 35/35/1 36/36/1
f 37/37/1 38/38/1 39/39/1 40/40/1
f 41/41/1 42/42/1 43/43/1 44/44/1
f 45/45/1 46/46/1 47/47/1 48/48/1
f 49/49/1 50/50/1 51/51/1 52/52/1
f 53/49/1 54/50/1 55/51/1 56/52/1
f 57/49/1 58/50/1 59/51/1 60/52/1
f 61/49/1 62/50/1 63/51/1 64/52/1
f 65/53/1 66/54/1 67/55/1 68/56/1
f 69/33/1 70/34/1 71/35/1 72/36/1
f 73/57/1 74/58/1 75/59/1 76/60/1
f 77/61/1 78/62/1 79/63/1 80/64/1
f 81/65/1 82/66/1 83/67/1 84/68/1
f 85/69/1 86/70/1 87/71/1 88/72/1
f 89/73/1 90/74/1 91/75/1 92/76/1
f 93/77/1 94/78/1 95/79/1 96/80/1
f 97/81/1 98/82/1 99/83/1 100/84/1
f 101/85/1 102/86/1 103/87/1 104/88/1
f 105/85/1 106/86/1 107/87/1 108/88/1
f 109/89/1 110/90/1 111/91/1 112/92/1

