# Tiled2Unity generated file. Do not modify by hand.
# Wavefront file for 'map1_mesh_0007.obj'

# Vertices (Count = 168)
v -1024 -752 0
v -1040 -752 0
v -1040 -736 0
v -1024 -736 0
v -1024 -768 0
v -1040 -768 0
v -1040 -752 0
v -1024 -752 0
v -688 -864 0
v -704 -864 0
v -704 -848 0
v -688 -848 0
v -688 -880 0
v -704 -880 0
v -704 -864 0
v -688 -864 0
v -688 -896 0
v -704 -896 0
v -704 -880 0
v -688 -880 0
v -688 -912 0
v -704 -912 0
v -704 -896 0
v -688 -896 0
v -864 -928 0
v -880 -928 0
v -880 -912 0
v -864 -912 0
v -848 -928 0
v -864 -928 0
v -864 -912 0
v -848 -912 0
v -832 -928 0
v -848 -928 0
v -848 -912 0
v -832 -912 0
v -816 -928 0
v -832 -928 0
v -832 -912 0
v -816 -912 0
v -800 -928 0
v -816 -928 0
v -816 -912 0
v -800 -912 0
v -784 -928 0
v -800 -928 0
v -800 -912 0
v -784 -912 0
v -768 -928 0
v -784 -928 0
v -784 -912 0
v -768 -912 0
v -752 -928 0
v -768 -928 0
v -768 -912 0
v -752 -912 0
v -736 -928 0
v -752 -928 0
v -752 -912 0
v -736 -912 0
v -720 -928 0
v -736 -928 0
v -736 -912 0
v -720 -912 0
v -704 -928 0
v -720 -928 0
v -720 -912 0
v -704 -912 0
v -688 -928 0
v -704 -928 0
v -704 -912 0
v -688 -912 0
v -672 -928 0
v -688 -928 0
v -688 -912 0
v -672 -912 0
v -656 -928 0
v -672 -928 0
v -672 -912 0
v -656 -912 0
v -640 -928 0
v -656 -928 0
v -656 -912 0
v -640 -912 0
v -624 -928 0
v -640 -928 0
v -640 -912 0
v -624 -912 0
v -608 -928 0
v -624 -928 0
v -624 -912 0
v -608 -912 0
v -592 -928 0
v -608 -928 0
v -608 -912 0
v -592 -912 0
v -576 -928 0
v -592 -928 0
v -592 -912 0
v -576 -912 0
v -576 -944 0
v -592 -944 0
v -592 -928 0
v -576 -928 0
v -576 -960 0
v -592 -960 0
v -592 -944 0
v -576 -944 0
v -576 -976 0
v -592 -976 0
v -592 -960 0
v -576 -960 0
v -576 -992 0
v -592 -992 0
v -592 -976 0
v -576 -976 0
v -576 -1008 0
v -592 -1008 0
v -592 -992 0
v -576 -992 0
v -576 -1024 0
v -592 -1024 0
v -592 -1008 0
v -576 -1008 0
v -576 -1040 0
v -592 -1040 0
v -592 -1024 0
v -576 -1024 0
v -576 -1056 0
v -592 -1056 0
v -592 -1040 0
v -576 -1040 0
v -544 -1056 0
v -560 -1056 0
v -560 -1040 0
v -544 -1040 0
v -480 -1056 0
v -496 -1056 0
v -496 -1040 0
v -480 -1040 0
v -576 -1072 0
v -592 -1072 0
v -592 -1056 0
v -576 -1056 0
v -576 -1088 0
v -592 -1088 0
v -592 -1072 0
v -576 -1072 0
v -560 -1088 0
v -576 -1088 0
v -576 -1072 0
v -560 -1072 0
v -544 -1088 0
v -560 -1088 0
v -560 -1072 0
v -544 -1072 0
v -528 -1088 0
v -544 -1088 0
v -544 -1072 0
v -528 -1072 0
v -512 -1088 0
v -528 -1088 0
v -528 -1072 0
v -512 -1072 0
v -576 -1104 0
v -592 -1104 0
v -592 -1088 0
v -576 -1088 0

# Texture cooridinates (Count = 32)
vt 0.08780992 0.9695817
vt 0.1043388 0.9695817
vt 0.1043388 1
vt 0.08780992 1
vt 0.1580579 0.743346
vt 0.1745868 0.743346
vt 0.1745868 0.7737643
vt 0.1580579 0.7737643
vt 0.1580579 0.7110266
vt 0.1745868 0.7110266
vt 0.1745868 0.7414448
vt 0.1580579 0.7414448
vt 0.1229339 0.5817491
vt 0.1394628 0.5817491
vt 0.1394628 0.6121673
vt 0.1229339 0.6121673
vt 0.1229339 0.743346
vt 0.1394628 0.743346
vt 0.1394628 0.7737643
vt 0.1229339 0.7737643
vt 0.9307851 0.2908745
vt 0.947314 0.2908745
vt 0.947314 0.3212928
vt 0.9307851 0.3212928
vt 0.9307851 0.2585551
vt 0.947314 0.2585551
vt 0.947314 0.2889734
vt 0.9307851 0.2889734
vt 0.1053719 0.743346
vt 0.1219008 0.743346
vt 0.1219008 0.7737643
vt 0.1053719 0.7737643

# Normal
vn 0 0 -1

# Mesh description
g map1_mesh_0007

# Faces
f 1/1/1 2/2/1 3/3/1 4/4/1
f 5/1/1 6/2/1 7/3/1 8/4/1
f 9/5/1 10/6/1 11/7/1 12/8/1
f 13/5/1 14/6/1 15/7/1 16/8/1
f 17/5/1 18/6/1 19/7/1 20/8/1
f 21/5/1 22/6/1 23/7/1 24/8/1
f 25/9/1 26/10/1 27/11/1 28/12/1
f 29/9/1 30/10/1 31/11/1 32/12/1
f 33/9/1 34/10/1 35/11/1 36/12/1
f 37/9/1 38/10/1 39/11/1 40/12/1
f 41/9/1 42/10/1 43/11/1 44/12/1
f 45/9/1 46/10/1 47/11/1 48/12/1
f 49/9/1 50/10/1 51/11/1 52/12/1
f 53/9/1 54/10/1 55/11/1 56/12/1
f 57/9/1 58/10/1 59/11/1 60/12/1
f 61/9/1 62/10/1 63/11/1 64/12/1
f 65/9/1 66/10/1 67/11/1 68/12/1
f 69/13/1 70/14/1 71/15/1 72/16/1
f 73/9/1 74/10/1 75/11/1 76/12/1
f 77/9/1 78/10/1 79/11/1 80/12/1
f 81/9/1 82/10/1 83/11/1 84/12/1
f 85/9/1 86/10/1 87/11/1 88/12/1
f 89/9/1 90/10/1 91/11/1 92/12/1
f 93/9/1 94/10/1 95/11/1 96/12/1
f 97/17/1 98/18/1 99/19/1 100/20/1
f 101/5/1 102/6/1 103/7/1 104/8/1
f 105/5/1 106/6/1 107/7/1 108/8/1
f 109/5/1 110/6/1 111/7/1 112/8/1
f 113/5/1 114/6/1 115/7/1 116/8/1
f 117/5/1 118/6/1 119/7/1 120/8/1
f 121/5/1 122/6/1 123/7/1 124/8/1
f 125/5/1 126/6/1 127/7/1 128/8/1
f 129/5/1 130/6/1 131/7/1 132/8/1
f 133/21/1 134/22/1 135/23/1 136/24/1
f 137/25/1 138/26/1 139/27/1 140/28/1
f 141/5/1 142/6/1 143/7/1 144/8/1
f 145/29/1 146/30/1 147/31/1 148/32/1
f 149/9/1 150/10/1 151/11/1 152/12/1
f 153/9/1 154/10/1 155/11/1 156/12/1
f 157/9/1 158/10/1 159/11/1 160/12/1
f 161/9/1 162/10/1 163/11/1 164/12/1
f 165/5/1 166/6/1 167/7/1 168/8/1

