# Tiled2Unity generated file. Do not modify by hand.
# Wavefront file for 'map1_mesh_0017.obj'

# Vertices (Count = 16)
v -1136 -672 0
v -1152 -672 0
v -1152 -656 0
v -1136 -656 0
v -672 -752 0
v -688 -752 0
v -688 -736 0
v -672 -736 0
v -992 -928 0
v -1008 -928 0
v -1008 -912 0
v -992 -912 0
v -480 -1072 0
v -496 -1072 0
v -496 -1056 0
v -480 -1056 0

# Texture cooridinates (Count = 8)
vt 0.8429752 0.8403042
vt 0.8595041 0.8403042
vt 0.8595041 0.8707224
vt 0.8429752 0.8707224
vt 0.8429752 0.8079848
vt 0.8595041 0.8079848
vt 0.8595041 0.838403
vt 0.8429752 0.838403

# Normal
vn 0 0 -1

# Mesh description
g map1_mesh_0017

# Faces
f 1/1/1 2/2/1 3/3/1 4/4/1
f 5/1/1 6/2/1 7/3/1 8/4/1
f 9/1/1 10/2/1 11/3/1 12/4/1
f 13/5/1 14/6/1 15/7/1 16/8/1

