# Tiled2Unity generated file. Do not modify by hand.
# Wavefront file for 'map1_mesh_0005.obj'

# Vertices (Count = 24)
v -1136 -288 0
v -1152 -288 0
v -1152 -272 0
v -1136 -272 0
v -880 -656 0
v -896 -656 0
v -896 -640 0
v -880 -640 0
v -768 -800 0
v -784 -800 0
v -784 -784 0
v -768 -784 0
v -992 -896 0
v -1008 -896 0
v -1008 -880 0
v -992 -880 0
v -672 -1008 0
v -688 -1008 0
v -688 -992 0
v -672 -992 0
v -912 -1088 0
v -928 -1088 0
v -928 -1072 0
v -912 -1072 0

# Texture cooridinates (Count = 20)
vt 0.9483471 0.2585551
vt 0.9648761 0.2585551
vt 0.9648761 0.2889734
vt 0.9483471 0.2889734
vt 0.9659091 0.3231939
vt 0.982438 0.3231939
vt 0.982438 0.3536122
vt 0.9659091 0.3536122
vt 0.9659091 0.3555133
vt 0.982438 0.3555133
vt 0.982438 0.3859316
vt 0.9659091 0.3859316
vt 0.9483471 0.3231939
vt 0.9648761 0.3231939
vt 0.9648761 0.3536122
vt 0.9483471 0.3536122
vt 0.9834711 0.3555133
vt 1 0.3555133
vt 1 0.3859316
vt 0.9834711 0.3859316

# Normal
vn 0 0 -1

# Mesh description
g map1_mesh_0005

# Faces
f 1/1/1 2/2/1 3/3/1 4/4/1
f 5/5/1 6/6/1 7/7/1 8/8/1
f 9/9/1 10/10/1 11/11/1 12/12/1
f 13/13/1 14/14/1 15/15/1 16/16/1
f 17/17/1 18/18/1 19/19/1 20/20/1
f 21/13/1 22/14/1 23/15/1 24/16/1

